<?xml version="1.0" standalone="no"?>
<!DOCTYPE svg PUBLIC "-//W3C//DTD SVG 20010904//EN"
 "http://www.w3.org/TR/2001/REC-SVG-20010904/DTD/svg10.dtd">
<svg version="1.0" xmlns="http://www.w3.org/2000/svg"
 width="2048.000000pt" height="2048.000000pt" viewBox="0 0 2048.000000 2048.000000"
 preserveAspectRatio="xMidYMid meet">
<metadata>
Created by potrace 1.14, written by Peter Selinger 2001-2017
</metadata>
<g transform="translate(0.000000,2048.000000) scale(0.100000,-0.100000)"
fill="#000000" stroke="none">
<path d="M5467 13943 c-3 -16 -359 -1690 -791 -3721 -432 -2030 -786 -3697
-786 -3702 0 -7 265 -10 770 -10 424 0 770 2 770 4 0 2 135 645 301 1428 165
782 305 1447 311 1476 l11 52 896 0 c925 0 1095 -6 1255 -40 316 -69 493 -287
472 -580 -8 -109 -43 -278 -106 -510 -198 -731 -265 -1056 -277 -1340 -6 -161
7 -260 52 -407 l26 -83 818 0 817 0 31 138 30 137 -51 46 c-97 87 -143 218
-131 364 4 44 49 312 100 595 175 963 209 1195 209 1450 0 163 -2 180 -27 255
-14 44 -43 109 -64 145 -72 123 -248 277 -413 360 -25 13 -97 44 -162 69
l-116 47 161 84 c405 210 615 351 826 555 346 334 590 809 682 1332 33 183 33
493 1 636 -134 599 -551 1036 -1127 1181 -258 64 -98 60 -2396 63 l-2086 3 -6
-27z m3354 -1276 c342 -51 534 -146 649 -323 117 -180 138 -402 65 -682 -56
-211 -157 -386 -314 -542 -196 -196 -406 -298 -708 -346 -96 -15 -227 -18
-1147 -21 l-1038 -4 5 23 c3 13 94 442 202 953 108 512 198 938 201 948 6 18
44 18 992 14 835 -3 1003 -6 1093 -20z"/>
<path d="M12920 13965 c0 -3 -354 -1667 -786 -3697 -432 -2031 -788 -3708
-791 -3725 l-6 -33 772 0 c424 0 771 3 771 6 0 7 547 2594 557 2632 l5 22
1052 0 c1144 0 1226 3 1486 57 518 106 975 378 1365 809 534 591 865 1430 865
2191 0 556 -237 1033 -676 1361 -298 223 -622 334 -1083 371 -134 11 -3531 17
-3531 6z m3095 -1302 c361 -83 587 -305 651 -641 44 -231 -30 -628 -171 -918
-143 -294 -407 -508 -733 -594 -195 -52 -216 -53 -1159 -57 -486 -2 -883 -1
-883 4 0 10 460 2203 466 2221 3 11 162 12 871 9 835 -3 871 -4 958 -24z"/>
</g>
</svg>
